<svg width="24" height="22" viewBox="0 0 24 22" fill="none" xmlns="http://www.w3.org/2000/svg">
<g id="Group 48096651">
<rect id="Rectangle 24214" width="2.92305" height="16.7606" rx="1.46153" transform="matrix(0.870303 0.492517 -0.50752 0.86164 13.0229 0)" fill="#14141F"/>
<path id="Rectangle 24219" d="M2.43831 17.9672C3.11851 16.8124 4.61549 16.4113 5.78191 17.0714L6.21386 17.3159L4.55722 20.1284C4.14756 20.8239 3.24598 21.0655 2.54349 20.6679C1.841 20.2704 1.60362 19.3843 2.01328 18.6888L2.43831 17.9672Z" fill="#14141F"/>
<rect id="Rectangle 24216" x="16.6465" y="16.0277" width="2.87931" height="6.85414" rx="1.43965" transform="rotate(-90 16.6465 16.0277)" fill="#14141F"/>
<path id="Rectangle 24218" d="M1.43966 16.0277C0.644557 16.0277 0 15.3832 0 14.5881C0 13.793 0.644556 13.1484 1.43965 13.1484H12.1998C13.79 13.1484 15.0791 14.4375 15.0791 16.0277H1.43966Z" fill="#14141F"/>
<rect id="Rectangle 24215" width="2.92305" height="5.85519" rx="1.46153" transform="matrix(0.870302 -0.492517 0.50752 0.86164 7.83398 1.44019)" fill="#14141F"/>
<path id="Rectangle 24217" d="M13.1451 10.4556C12.3258 9.06464 12.8006 7.29246 14.2056 6.49736L21.3865 18.6888C21.7962 19.3843 21.5588 20.2704 20.8563 20.6679C20.1538 21.0655 19.2522 20.8239 18.8426 20.1284L13.1451 10.4556Z" fill="#14141F"/>
</g>
</svg>
