<svg width="32" height="18" viewBox="0 0 32 18" fill="none" xmlns="http://www.w3.org/2000/svg">
<g id="Ellipse 1169">
<mask id="path-1-inside-1_1_239" fill="white">
<path d="M30.9302 17.4453C31.4799 17.4985 31.972 17.0959 31.9908 16.5439C32.055 14.6564 31.7845 12.7696 31.1893 10.9717C30.4892 8.85685 29.3552 6.91151 27.8599 5.26023C26.3646 3.60894 24.5409 2.28812 22.5056 1.38232C20.4704 0.476525 18.2684 0.00571959 16.0407 5.17845e-05C13.813 -0.00561602 11.6087 0.453979 9.56882 1.34941C7.52898 2.24484 5.69861 3.55637 4.1949 5.20002C2.69119 6.84367 1.54729 8.78322 0.836437 10.8945C0.232107 12.6894 -0.0479144 14.5747 0.00668599 16.4625C0.0226526 17.0146 0.512652 17.4197 1.06263 17.3693L6.05357 16.9118C6.60354 16.8614 7.00267 16.3738 7.01363 15.8216C7.03176 14.9084 7.18903 14.0013 7.48174 13.1319C7.88107 11.9459 8.52366 10.8564 9.36838 9.93302C10.2131 9.00968 11.2413 8.27292 12.3872 7.7699C13.5331 7.26689 14.7714 7.00871 16.0229 7.01189C17.2743 7.01508 18.5113 7.27955 19.6546 7.78839C20.7979 8.29723 21.8224 9.03922 22.6624 9.96684C23.5024 10.8945 24.1395 11.9873 24.5327 13.1753C24.821 14.0461 24.9737 14.9541 24.9872 15.8674C24.9953 16.4196 25.392 16.9092 25.9417 16.9624L30.9302 17.4453Z"/>
</mask>
<path d="M30.9302 17.4453C31.4799 17.4985 31.972 17.0959 31.9908 16.5439C32.055 14.6564 31.7845 12.7696 31.1893 10.9717C30.4892 8.85685 29.3552 6.91151 27.8599 5.26023C26.3646 3.60894 24.5409 2.28812 22.5056 1.38232C20.4704 0.476525 18.2684 0.00571959 16.0407 5.17845e-05C13.813 -0.00561602 11.6087 0.453979 9.56882 1.34941C7.52898 2.24484 5.69861 3.55637 4.1949 5.20002C2.69119 6.84367 1.54729 8.78322 0.836437 10.8945C0.232107 12.6894 -0.0479144 14.5747 0.00668599 16.4625C0.0226526 17.0146 0.512652 17.4197 1.06263 17.3693L6.05357 16.9118C6.60354 16.8614 7.00267 16.3738 7.01363 15.8216C7.03176 14.9084 7.18903 14.0013 7.48174 13.1319C7.88107 11.9459 8.52366 10.8564 9.36838 9.93302C10.2131 9.00968 11.2413 8.27292 12.3872 7.7699C13.5331 7.26689 14.7714 7.00871 16.0229 7.01189C17.2743 7.01508 18.5113 7.27955 19.6546 7.78839C20.7979 8.29723 21.8224 9.03922 22.6624 9.96684C23.5024 10.8945 24.1395 11.9873 24.5327 13.1753C24.821 14.0461 24.9737 14.9541 24.9872 15.8674C24.9953 16.4196 25.392 16.9092 25.9417 16.9624L30.9302 17.4453Z" fill="#FAFDFF" stroke="#FAFDFF" stroke-width="16" mask="url(#path-1-inside-1_1_239)"/>
</g>
</svg>
