<svg width="58" height="16" viewBox="0 0 58 16" fill="none" xmlns="http://www.w3.org/2000/svg">
<g id="Oson">
<path d="M7.88016 15.1398C6.56016 15.1398 5.34682 14.8331 4.24016 14.2198C3.14682 13.6064 2.27349 12.7531 1.62016 11.6598C0.980156 10.5531 0.660156 9.3131 0.660156 7.93977C0.660156 6.56643 0.980156 5.3331 1.62016 4.23976C2.27349 3.14643 3.14682 2.2931 4.24016 1.67977C5.34682 1.06643 6.56016 0.759766 7.88016 0.759766C9.20016 0.759766 10.4068 1.06643 11.5002 1.67977C12.6068 2.2931 13.4735 3.14643 14.1002 4.23976C14.7402 5.3331 15.0602 6.56643 15.0602 7.93977C15.0602 9.3131 14.7402 10.5531 14.1002 11.6598C13.4602 12.7531 12.5935 13.6064 11.5002 14.2198C10.4068 14.8331 9.20016 15.1398 7.88016 15.1398ZM7.88016 12.0198C9.00016 12.0198 9.89349 11.6464 10.5602 10.8998C11.2402 10.1531 11.5802 9.16643 11.5802 7.93977C11.5802 6.69977 11.2402 5.7131 10.5602 4.97976C9.89349 4.2331 9.00016 3.85977 7.88016 3.85977C6.74682 3.85977 5.84016 4.22643 5.16016 4.95977C4.49349 5.6931 4.16016 6.68643 4.16016 7.93977C4.16016 9.17977 4.49349 10.1731 5.16016 10.9198C5.84016 11.6531 6.74682 12.0198 7.88016 12.0198Z" fill="#000099"/>
<path d="M22.0428 15.1398C21.0161 15.1398 20.0961 14.9731 19.2828 14.6398C18.4695 14.3064 17.8161 13.8131 17.3228 13.1598C16.879 12.5557 16.6289 11.8376 16.5727 11.0055C16.5651 10.893 16.656 10.7998 16.7687 10.7998H20.0223C20.1248 10.7998 20.2099 10.8776 20.227 10.9787C20.3004 11.4124 20.4723 11.7528 20.7428 11.9998C21.0495 12.2664 21.4495 12.3998 21.9428 12.3998C22.4495 12.3998 22.8495 12.2864 23.1428 12.0598C23.4361 11.8198 23.5828 11.4931 23.5828 11.0798C23.5828 10.7331 23.4628 10.4464 23.2228 10.2198C22.9961 9.9931 22.7095 9.80643 22.3628 9.65977C22.0295 9.5131 21.5495 9.34643 20.9228 9.15977C20.0161 8.87977 19.2761 8.59977 18.7028 8.31977C18.1295 8.03977 17.6361 7.62643 17.2228 7.07977C16.8095 6.5331 16.6028 5.81977 16.6028 4.93977C16.6028 3.6331 17.0761 2.6131 18.0228 1.87977C18.9695 1.1331 20.2028 0.759766 21.7228 0.759766C23.2695 0.759766 24.5161 1.1331 25.4628 1.87977C26.3587 2.57374 26.8605 3.53041 26.9683 4.74977C26.9784 4.86374 26.8869 4.95977 26.7725 4.95977H23.4714C23.3655 4.95977 23.2793 4.87687 23.2629 4.77225C23.2059 4.40787 23.0458 4.11704 22.7828 3.89977C22.4761 3.6331 22.0828 3.49976 21.6028 3.49976C21.1895 3.49976 20.8561 3.6131 20.6028 3.83977C20.3495 4.0531 20.2228 4.36643 20.2228 4.77977C20.2228 5.2331 20.4361 5.58643 20.8628 5.83977C21.2895 6.0931 21.9561 6.36643 22.8628 6.65977C23.7695 6.96643 24.5028 7.25977 25.0628 7.53977C25.6361 7.81977 26.1295 8.22643 26.5428 8.75977C26.9561 9.2931 27.1628 9.97977 27.1628 10.8198C27.1628 11.6198 26.9561 12.3464 26.5428 12.9998C26.1428 13.6531 25.5561 14.1731 24.7828 14.5598C24.0095 14.9464 23.0961 15.1398 22.0428 15.1398Z" fill="#000099"/>
<path d="M35.9075 15.1398C34.5875 15.1398 33.3742 14.8331 32.2675 14.2198C31.1742 13.6064 30.3008 12.7531 29.6475 11.6598C29.0075 10.5531 28.6875 9.3131 28.6875 7.93977C28.6875 6.56643 29.0075 5.3331 29.6475 4.23976C30.3008 3.14643 31.1742 2.2931 32.2675 1.67977C33.3742 1.06643 34.5875 0.759766 35.9075 0.759766C37.2275 0.759766 38.4342 1.06643 39.5275 1.67977C40.6342 2.2931 41.5008 3.14643 42.1275 4.23976C42.7675 5.3331 43.0875 6.56643 43.0875 7.93977C43.0875 9.3131 42.7675 10.5531 42.1275 11.6598C41.4875 12.7531 40.6208 13.6064 39.5275 14.2198C38.4342 14.8331 37.2275 15.1398 35.9075 15.1398ZM35.9075 12.0198C37.0275 12.0198 37.9208 11.6464 38.5875 10.8998C39.2675 10.1531 39.6075 9.16643 39.6075 7.93977C39.6075 6.69977 39.2675 5.7131 38.5875 4.97976C37.9208 4.2331 37.0275 3.85977 35.9075 3.85977C34.7742 3.85977 33.8675 4.22643 33.1875 4.95977C32.5208 5.6931 32.1875 6.68643 32.1875 7.93977C32.1875 9.17977 32.5208 10.1731 33.1875 10.9198C33.8675 11.6531 34.7742 12.0198 35.9075 12.0198Z" fill="#000099"/>
<path d="M57.5502 14.7998C57.5502 14.9102 57.4606 14.9998 57.3502 14.9998H54.2377C54.1706 14.9998 54.1079 14.966 54.0709 14.91L48.777 6.89522C48.6677 6.72974 48.4102 6.80712 48.4102 7.00545V14.7998C48.4102 14.9102 48.3206 14.9998 48.2102 14.9998H45.1902C45.0797 14.9998 44.9902 14.9102 44.9902 14.7998V1.15976C44.9902 1.04931 45.0797 0.959765 45.1902 0.959765H48.3023C48.3696 0.959765 48.4324 0.993637 48.4694 1.04989L53.763 9.10139C53.8721 9.26729 54.1302 9.19006 54.1302 8.99152V1.15976C54.1302 1.04931 54.2197 0.959765 54.3302 0.959765H57.3502C57.4606 0.959765 57.5502 1.04931 57.5502 1.15977V14.7998Z" fill="#000099"/>
</g>
</svg>
